# xmcd CD database file
#
# Track frame offsets:
#	150
#	13081
#	28256
#	46310
#	60409
#	74192
#	84408
#	98866
#	111630
#	126892
#
# Disc length: 1959 seconds
#
# Revision: 1
# Processed by: cddbd v1.5.2PL0 Copyright (c) Steve Scherf et al.
# Submitted via: CDex 1.70beta2
#
DISCID=8f07a50a
DTITLE=Waters, Sneezy [CDn-cty-99) - Sneezy Waters Sings Hank Williams
DYEAR=1999
DGENRE=Country
TTITLE0=Jambalaya
TTITLE1=You win again
TTITLE2=Weary blues (from waiting)
TTITLE3=Lovesick Blues
TTITLE4=Alone and foresaken
TTITLE5=Mind your own business
TTITLE6=I'm so lonesome I could cry
TTITLE7=Hey good looking
TTITLE8=Cold cold heart
TTITLE9=I saw the light
EXTD=YEAR: 1999
EXTT0=
EXTT1=
EXTT2=
EXTT3=
EXTT4=
EXTT5=
EXTT6=
EXTT7=
EXTT8=
EXTT9=
PLAYORDER=
